<svg id="Capa_1" data-name="Capa 1" xmlns="http://www.w3.org/2000/svg" viewBox="0 0 477.87 512"><defs><style>.cls-1{fill:#fff}</style></defs><title>factory</title><path class="cls-1" d="M490.73 223a8.53 8.53 0 0 0-8.47-.1l-23.48 13-6.51-227.61A8.53 8.53 0 0 0 443.73 0H384a8.53 8.53 0 0 0-8.53 8.29l-8 278.43-26.18 14.51V230.4a8.53 8.53 0 0 0-12.67-7.46l-140.89 78.29V230.4a8.53 8.53 0 0 0-12.67-7.46l-153.6 85.34a8.53 8.53 0 0 0-4.39 7.46v187.73A8.53 8.53 0 0 0 25.6 512h460.8a8.53 8.53 0 0 0 8.53-8.53V230.4a8.53 8.53 0 0 0-4.2-7.4zM392.3 17h43.14l.49 17.07h-44.12zm-1 34.13h45.11L442 245.32 384.85 277zm-143.83 443.8h-51.2v-42.66h51.2zm68.27 0h-51.2v-42.66h51.2zm162.13 0H332.8v-51.2a8.53 8.53 0 0 0-8.53-8.53H187.73a8.53 8.53 0 0 0-8.53 8.53v51.2H34.13V320.76l136.53-75.85v70.83a8.53 8.53 0 0 0 12.67 7.46l140.93-78.28v70.83a8.53 8.53 0 0 0 12.67 7.46l80.48-44.71 37.41-20.78 23-12.8z" transform="translate(-17.07)"/><path class="cls-1" d="M136.53 341.33H68.27a8.53 8.53 0 0 0-8.53 8.53V384a8.53 8.53 0 0 0 8.53 8.53h68.27a8.53 8.53 0 0 0 8.53-8.53v-34.13a8.53 8.53 0 0 0-8.54-8.54zM128 375.47H76.8V358.4H128zm162.13-34.14h-68.26a8.53 8.53 0 0 0-8.53 8.53V384a8.53 8.53 0 0 0 8.53 8.53h68.27a8.53 8.53 0 0 0 8.53-8.53v-34.13a8.53 8.53 0 0 0-8.54-8.54zm-8.53 34.13h-51.2V358.4h51.2zm162.13-34.13h-68.26a8.53 8.53 0 0 0-8.53 8.53V384a8.53 8.53 0 0 0 8.53 8.53h68.27a8.53 8.53 0 0 0 8.53-8.53v-34.13a8.53 8.53 0 0 0-8.54-8.54zm-8.53 34.13H384V358.4h51.2z" transform="translate(-17.07)"/></svg>