<svg id="Capa_1" data-name="Capa 1" xmlns="http://www.w3.org/2000/svg" viewBox="0 0 469.32 512"><defs><style>.cls-1{fill:#d3d3d3}</style></defs><title>fom-icon2</title><path class="cls-1" d="M302.94 264.49a8.53 8.53 0 0 0-8.53 8.53v119.51h-256V68.27h256v119.45a8.53 8.53 0 0 0 17.07 0V37.59A37.64 37.64 0 0 0 273.88 0H58.93a37.64 37.64 0 0 0-37.59 37.59V474.4A37.64 37.64 0 0 0 58.93 512h214.95a37.64 37.64 0 0 0 37.59-37.59V273a8.52 8.52 0 0 0-8.53-8.51zM58.93 17.07h214.95a20.55 20.55 0 0 1 20.52 20.52V51.2h-256V37.59a20.56 20.56 0 0 1 20.53-20.52zm214.95 477.86H58.93a20.55 20.55 0 0 1-20.52-20.52V409.6h256v64.81a20.55 20.55 0 0 1-20.53 20.52z" transform="translate(-21.34)"/><path class="cls-1" d="M166.41 418.13a34.13 34.13 0 1 0 34.13 34.13 34.17 34.17 0 0 0-34.13-34.13zm0 51.2a17.07 17.07 0 1 1 17.07-17.07 17.08 17.08 0 0 1-17.07 17.07zM132.28 42.67h34.13a8.53 8.53 0 1 0 0-17.07h-34.13a8.53 8.53 0 1 0 0 17.07zm59.72 0h8.53a8.53 8.53 0 1 0 0-17.07H192a8.53 8.53 0 1 0 0 17.07zm298 190.99a8.54 8.54 0 0 0 0-6.52 8.71 8.71 0 0 0-1.85-2.79L385.77 122a8.53 8.53 0 0 0-12.06 12l87.83 87.83H157.88a8.53 8.53 0 0 0 0 17.07h303.66l-87.83 87.83a8.53 8.53 0 1 0 12.07 12.07l102.39-102.36a8.58 8.58 0 0 0 1.83-2.78z" transform="translate(-21.34)"/></svg>