<svg id="Layer_1" data-name="Layer 1" xmlns="http://www.w3.org/2000/svg" viewBox="0 0 467.06 512"><defs><style>.cls-1{fill:#fff}</style></defs><title>like</title><path class="cls-1" d="M73 452a10 10 0 1 0 10 10 10 10 0 0 0-10-10z" transform="translate(-23)"/><path class="cls-1" d="M23 262v240a10 10 0 0 0 10 10h60a30 30 0 0 0 27.62-18.3C181.38 505.58 228.68 512 295 512h28a40.08 40.08 0 0 0 33.3-62.26 40 40 0 0 0 19.93-60 40 40 0 0 0 20-60A40 40 0 0 0 383 252h-85.54q1.11-2.77 2.2-5.43C306.82 229.09 313 214 313 182c0-33.71-13.29-70-42.48-70H253a10 10 0 0 0-10 10c0 22.56-7.16 49.29-19.14 71.5-13 24.09-30.36 41-48.91 47.7A182.41 182.41 0 0 1 113 252H33a10 10 0 0 0-10 10zm158.72-2c23.19-8.34 44.4-28.59 59.74-57 12-22.18 19.47-47.53 21.17-71h7.89c15.34 0 22.48 29.84 22.48 50 0 28.07-5 40.2-11.84 57-1.61 3.93-3.36 8.23-5.16 13h-23a10 10 0 0 0 0 20h130a20 20 0 0 1 0 40h-70a10 10 0 0 0 0 20h50a20 20 0 0 1 0 40h-50a10 10 0 0 0 0 20h30a20 20 0 0 1 0 40h-30a10 10 0 0 0 0 20h10.68a20 20 0 0 1-.68 40h-28c-65.21 0-111.74-6.39-172-18.21v-202A202.18 202.18 0 0 0 181.72 260zM43 272h60v210a10 10 0 0 1-10 10H43z" transform="translate(-23)"/><path class="cls-1" d="M187 58.62a10 10 0 0 0-5.54-17.06l-34.23-5L132 5.57a10 10 0 0 0-17.94 0l-15.3 31-34.23 5A10 10 0 0 0 59 58.62l24.73 24.14-5.85 34.09a10 10 0 0 0 14.51 10.54L123 111.3l30.62 16.09a9.92 9.92 0 0 0 10.92-1.09L200 163.18a10 10 0 0 0 14.41-13.87L164.86 97.8l-2.58-15zm-59.35 32.53a10 10 0 0 0-9.3 0L101 100.26 104.33 81a10 10 0 0 0-2.88-8.85l-14-13.67 19.38-2.82a10 10 0 0 0 7.53-5.47L123 32.6l8.66 17.55a10 10 0 0 0 7.53 5.47l19.38 2.82-14 13.67a10 10 0 0 0-2.89 8.89l3.31 19.3zm205.77 56.29a10 10 0 1 0 14.42 13.86l33.64-35a9.92 9.92 0 0 0 10.91 1.08L423 111.3l30.62 16.09a10 10 0 0 0 14.51-10.54l-5.85-34.09L487 58.62a10 10 0 0 0-5.54-17.06l-34.23-5L432 5.57a10 10 0 0 0-17.94 0l-15.3 31-34.23 5A10 10 0 0 0 359 58.62l24.77 24.14-2.58 15zm73.39-91.81a10 10 0 0 0 7.53-5.47L423 32.6l8.66 17.55a10 10 0 0 0 7.53 5.47l19.38 2.82-14 13.67a10 10 0 0 0-2.89 8.89l3.31 19.3-17.34-9.11a10 10 0 0 0-9.3 0L401 100.26 404.32 81a10 10 0 0 0-2.87-8.85l-14-13.67zM73 352a10 10 0 0 0-10 10v60a10 10 0 0 0 20 0v-60a10 10 0 0 0-10-10z" transform="translate(-23)"/></svg>