<svg id="Layer_1" data-name="Layer 1" xmlns="http://www.w3.org/2000/svg" viewBox="0 0 512 323.87"><defs><style>.cls-1{fill:#fff;}</style></defs><title>fast-delivery</title><path class="cls-1" d="M503.67,243.58a35.3,35.3,0,0,0-20.91-12l-3.91-53.07a8,8,0,0,0,7.82-6.62l1.51-8.55A30.23,30.23,0,0,0,482,138.51c-5.54-6.6-13.65-10.24-22.84-10.24H400.3L403.17,112a15.41,15.41,0,0,0-3.23-12.64,15.19,15.19,0,0,0-11.71-5.32H98.52a18.73,18.73,0,0,0-18,15.18L54.94,254.61a8,8,0,1,0,15.79,2.78L96.36,112a2.72,2.72,0,0,1,2.16-1.93h288.7L361.74,254.61a8,8,0,0,0,15.79,2.78l1.85-10.48h95.89c6.63,0,12.35,2.48,16.12,7a19.83,19.83,0,0,1,4.47,11.2H469.23a8,8,0,0,0-7.89,6.63l-3,17.1A22.82,22.82,0,0,0,463,307.54a22.37,22.37,0,0,0,17.27,7.78h7.55l-6.22,35.27H460.47a42.1,42.1,0,0,0-9.06-19c-8.2-9.77-20.26-15.15-34-15.15-22,0-43.18,14.38-53.11,34.2H361.1l10.4-59a8,8,0,1,0-15.79-2.78L344.82,350.6H196.42a42.1,42.1,0,0,0-9.06-19c-8.2-9.77-20.26-15.15-34-15.15-22,0-43.18,14.38-53.11,34.2h-46l3.2-18.17h36a8,8,0,0,0,0-16H8a8,8,0,1,0,0,16h33.2l-2.87,16.24a15.41,15.41,0,0,0,3.23,12.64,15.19,15.19,0,0,0,11.71,5.32H95.07c-2.17,13.6,1.09,26.41,9.27,36.15s20.26,15.15,34,15.15c27.28,0,53.39-22.15,58.19-49.38.11-.64.2-1.29.29-1.93H359.12c-2.17,13.6,1.09,26.41,9.27,36.15s20.27,15.15,34,15.15c27.28,0,53.39-22.15,58.19-49.38.11-.64.2-1.29.29-1.93h27.52a8,8,0,0,0,7.89-6.62l15.08-85.51C513.38,262.89,510.66,251.91,503.67,243.58Zm-121.46-12.7,9.23-52.37h71.34l3.86,52.38Zm90.18-70.33-.34,1.93H394.27l3.2-18.17h61.68a13.42,13.42,0,0,1,10.56,4.51C472.24,151.83,473.2,156,472.39,160.55ZM180.71,365.77c-3.51,19.92-22.53,36.13-42.4,36.13-8.89,0-16.59-3.35-21.69-9.43-5.25-6.26-7.25-14.75-5.63-23.92,3.51-19.92,22.53-36.13,42.4-36.13,8.89,0,16.59,3.35,21.69,9.43C180.32,348.11,182.32,356.6,180.71,365.77Zm264.05,0c-3.51,19.92-22.53,36.13-42.4,36.13-8.89,0-16.59-3.35-21.69-9.43-5.25-6.26-7.25-14.75-5.63-23.92,3.51-19.92,22.53-36.13,42.4-36.13,8.89,0,16.59,3.35,21.69,9.43C444.37,348.11,446.37,356.6,444.76,365.77Zm45.92-66.48H480.31a6.26,6.26,0,0,1-5-2.05,6.79,6.79,0,0,1-1.2-5.64L476,281.12h17.92Z" transform="translate(0 -94.07)"/><path class="cls-1" d="M159.06,355.92a15.19,15.19,0,0,0-11.71-5.32,18.73,18.73,0,0,0-18,15.18,15.41,15.41,0,0,0,3.23,12.64,15.19,15.19,0,0,0,11.71,5.32,18.73,18.73,0,0,0,18-15.17A15.4,15.4,0,0,0,159.06,355.92Z" transform="translate(0 -94.07)"/><path class="cls-1" d="M423.11,355.92a15.19,15.19,0,0,0-11.71-5.32,18.73,18.73,0,0,0-18,15.17,15.41,15.41,0,0,0,3.23,12.64,15.19,15.19,0,0,0,11.71,5.32,18.73,18.73,0,0,0,18-15.17A15.4,15.4,0,0,0,423.11,355.92Z" transform="translate(0 -94.07)"/><path class="cls-1" d="M323.37,316.39H221.79a8,8,0,1,0,0,16H323.37a8,8,0,0,0,0-16Z" transform="translate(0 -94.07)"/><path class="cls-1" d="M179,282.19H31.15a8,8,0,1,0,0,16H179a8,8,0,1,0,0-16Z" transform="translate(0 -94.07)"/><path class="cls-1" d="M332.13,249.94l-29.68-25.65A8,8,0,1,0,292,236.41L305.35,248H102.08a8,8,0,0,0,0,16H300.27l-16.54,11a8,8,0,1,0,8.85,13.36l38.73-25.65a8,8,0,0,0,.82-12.75Z" transform="translate(0 -94.07)"/></svg>