<svg id="Layer_1" data-name="Layer 1" xmlns="http://www.w3.org/2000/svg" viewBox="0 0 397.63 512"><defs><style>.cls-1{fill:#efa335;}.cls-2{fill:#fd8f31;}.cls-3{fill:#fc4e51;}.cls-4{fill:#ea3942;}.cls-5{fill:#dfede7;}.cls-6{fill:#fccf3f;}</style></defs><title>feat-img4</title><path class="cls-1" d="M438.93,52.27A477.39,477.39,0,0,0,100.31,192.53L415.78,508a13.56,13.56,0,0,0,23.15-9.59Z" transform="translate(-57)"/><path class="cls-2" d="M380.41,55.82V472.63L415.78,508a13.56,13.56,0,0,0,23.15-9.59V52.27A483.06,483.06,0,0,0,380.41,55.82Z" transform="translate(-57)"/><path class="cls-3" d="M406.36,133.88a25.95,25.95,0,1,1-25.95-25.95A26,26,0,0,1,406.36,133.88Z" transform="translate(-57)"/><path class="cls-4" d="M380.41,107.93v51.89a25.95,25.95,0,1,0,0-51.89Z" transform="translate(-57)"/><path class="cls-3" d="M302.36,299.42A23.46,23.46,0,1,1,278.9,276,23.46,23.46,0,0,1,302.36,299.42Z" transform="translate(-57)"/><path class="cls-3" d="M416.07,295.89a24.56,24.56,0,1,1-24.56-24.56A24.56,24.56,0,0,1,416.07,295.89Z" transform="translate(-57)"/><path class="cls-4" d="M391.52,271.33A24.43,24.43,0,0,0,380.41,274v43.8a24.56,24.56,0,1,0,11.11-46.46Z" transform="translate(-57)"/><path class="cls-5" d="M383.23,362.56h-5.68a26.68,26.68,0,0,0-26.68,26.68,7.2,7.2,0,0,0,7.2,7.2h7.19a2.82,2.82,0,0,1,2.82,3l-.6,11.2a6,6,0,0,0,6,6.36h13.73a6,6,0,0,0,6-6.36l-.6-11.2a2.82,2.82,0,0,1,2.82-3h7.19a7.2,7.2,0,0,0,7.2-7.2A26.68,26.68,0,0,0,383.23,362.56Z" transform="translate(-57)"/><path class="cls-5" d="M278.9,196.49v6.69a31.44,31.44,0,0,0,31.44,31.44,8.49,8.49,0,0,0,8.49-8.48v-8.48a3.32,3.32,0,0,1,3.5-3.32l13.2.7a7.12,7.12,0,0,0,7.5-7.11V191.74a7.12,7.12,0,0,0-7.5-7.11l-13.2.7a3.32,3.32,0,0,1-3.5-3.32v-8.48a8.49,8.49,0,0,0-8.49-8.48A31.44,31.44,0,0,0,278.9,196.49Z" transform="translate(-57)"/><path class="cls-6" d="M427.5,0l-4.06,0A504.88,504.88,0,0,0,65.31,148.34l-.39.39a27.36,27.36,0,0,0,0,38.55l19.84,19.84a27.57,27.57,0,0,0,38.89,0l.2-.2.17-.17a22.93,22.93,0,0,1,32.74.46l40.4,42.26a14.1,14.1,0,0,0,20.2.23,14.89,14.89,0,0,0,.23-20.65l-29.08-30.42a14.71,14.71,0,0,1-.32-20.22,14.44,14.44,0,0,1,20.91,0l9.16,9.58a14.71,14.71,0,0,0,20.18,1.22,14.44,14.44,0,0,0,1-20.89l-6.64-6.95a23,23,0,0,1,6.53-36.52,422,422,0,0,1,184.11-42l3.76,0a27.23,27.23,0,0,0,27.43-27.25V27.3A27.31,27.31,0,0,0,427.5,0Z" transform="translate(-57)"/><path class="cls-1" d="M427.5,0l-4.06,0q-14.18,0-28.17.78v83q14-.91,28.17-.93l3.76,0a27.23,27.23,0,0,0,27.43-27.25V27.3A27.31,27.31,0,0,0,427.5,0Z" transform="translate(-57)"/></svg>