<svg id="Capa_1" data-name="Capa 1" xmlns="http://www.w3.org/2000/svg" viewBox="0 0 58.27 57.98"><defs><style>.cls-1{fill:#ecf0f1;}.cls-2{fill:#556080;}.cls-3{fill:#eddcc7;}.cls-4{fill:#d75a4a;}.cls-5{fill:#f29c21;}.cls-6{fill:#d6c4b1;}.cls-7{fill:#a34740;}.cls-8{fill:#e18c25;}.cls-9{fill:#5e5e5e;}</style></defs><title>user</title><path class="cls-1" d="M18.61,41.7,10.71,46a7.11,7.11,0,0,0-1.27.9,26.49,26.49,0,0,0,34,.09,7,7,0,0,0-1.39-.93L33.6,41.83a3.23,3.23,0,0,1-1.78-2.89V35.62a12.79,12.79,0,0,0,.8-1,19.48,19.48,0,0,0,2.63-5.3,2.66,2.66,0,0,0,1.89-2.53V23.21a2.65,2.65,0,0,0-.89-2V16.12s1.05-8-9.75-8-9.75,8-9.75,8v5.13a2.64,2.64,0,0,0-.89,2v3.55A2.66,2.66,0,0,0,17.09,29a17.6,17.6,0,0,0,3.21,6.63v3.24A3.24,3.24,0,0,1,18.61,41.7Z" transform="translate(0 -0.14)"/><path class="cls-2" d="M27,.15A26.48,26.48,0,0,0,9.45,46.9,7,7,0,0,1,10.7,46l7.91-4.31a3.23,3.23,0,0,0,1.68-2.83V35.62A17.58,17.58,0,0,1,17.09,29a2.66,2.66,0,0,1-1.23-2.23V23.21a2.65,2.65,0,0,1,.89-2V16.12s-1.05-8,9.75-8,9.75,8,9.75,8v5.13a2.64,2.64,0,0,1,.89,2v3.55a2.66,2.66,0,0,1-1.89,2.53,19.48,19.48,0,0,1-2.63,5.3,12.79,12.79,0,0,1-.8,1v3.32a3.23,3.23,0,0,0,1.79,2.89l8.47,4.23a7.05,7.05,0,0,1,1.39.93A26.49,26.49,0,0,0,27,.15Z" transform="translate(0 -0.14)"/><polygon class="cls-3" points="36.84 48.49 36.83 48.5 34.84 55.79 39.49 51.14 36.84 48.49"/><path class="cls-4" d="M56.09,34.68l-1.25-1.25a2,2,0,0,0-2.81,0L48.45,37l2.65,2.65Z" transform="translate(0 -0.14)"/><rect class="cls-5" x="35.76" y="42.28" width="16.42" height="3.75" transform="translate(-18.34 43.88) rotate(-45)"/><polygon class="cls-6" points="42.48 54.15 42.49 54.15 39.49 51.14 34.84 55.79 34.71 56.27 42.48 54.15"/><path class="cls-7" d="M54.11,42.68l3.58-3.58a2,2,0,0,0,0-2.81l-1.6-1.6-5,5Z" transform="translate(0 -0.14)"/><rect class="cls-8" x="38.58" y="44.85" width="16.42" height="4.25" transform="translate(-19.51 46.71) rotate(-45)"/><path class="cls-9" d="M34,58.13a1,1,0,0,1-.71-1.71l2.21-2.21a1,1,0,0,1,1.41,1.41l-2.21,2.21A1,1,0,0,1,34,58.13Z" transform="translate(0 -0.14)"/></svg>