<svg id="Layer_1" data-name="Layer 1" xmlns="http://www.w3.org/2000/svg" viewBox="0 0 512 512"><defs><style>.cls-1{fill:#fff200;}</style></defs><title>waffle</title><path class="cls-1" d="M15,256C15,123.11,123.11,15,256,15A240.59,240.59,0,0,1,416.54,76.25a7.5,7.5,0,0,0,10-11.18A256,256,0,0,0,63.71,425,7.5,7.5,0,1,0,75,415.09,240.73,240.73,0,0,1,15,256Z"/><path class="cls-1" d="M446.93,85.46a7.5,7.5,0,0,0-11.19,10A240.59,240.59,0,0,1,497,256c0,132.89-108.11,241-241,241A240.55,240.55,0,0,1,95.13,435.45a7.5,7.5,0,0,0-10,11.17A256,256,0,0,0,446.93,85.46Z"/><path class="cls-1" d="M139.54,91.89a7.5,7.5,0,0,0-12-6,213.91,213.91,0,0,0-41.61,41.61,7.5,7.5,0,0,0,6,12H132a7.5,7.5,0,0,0,7.5-7.5Zm-15,32.65H107.73a198,198,0,0,1,16.82-16.82Z"/><path class="cls-1" d="M249.41,50.82a7.5,7.5,0,0,0-8-7.48,210.44,210.44,0,0,0-84.7,24,7.5,7.5,0,0,0-4,6.63V132a7.5,7.5,0,0,0,7.5,7.5h81.7a7.5,7.5,0,0,0,7.5-7.5Zm-15,73.72h-66.7v-46A195.17,195.17,0,0,1,234.41,59Z"/><path class="cls-1" d="M359.29,74a7.5,7.5,0,0,0-4-6.64,211,211,0,0,0-84.69-24,7.5,7.5,0,0,0-8,7.48V132a7.5,7.5,0,0,0,7.5,7.5h81.7a7.5,7.5,0,0,0,7.5-7.5Zm-15,50.58h-66.7V59a195.78,195.78,0,0,1,66.7,19.55Z"/><path class="cls-1" d="M380,139.54h40.17a7.5,7.5,0,0,0,5.67-12.41,213.9,213.9,0,0,0-41.32-41.23,7.5,7.5,0,0,0-12,6V132A7.5,7.5,0,0,0,380,139.54Zm7.5-31.82a198,198,0,0,1,16.82,16.82H387.46Z"/><path class="cls-1" d="M139.54,160.21a7.5,7.5,0,0,0-7.5-7.5H74a7.49,7.49,0,0,0-6.63,4,211,211,0,0,0-24,84.69,7.5,7.5,0,0,0,7.48,8H132a7.5,7.5,0,0,0,7.5-7.5Zm-15,74.2H59a195.69,195.69,0,0,1,19.54-66.7h46Z"/><path class="cls-1" d="M249.41,160.21a7.5,7.5,0,0,0-7.5-7.5h-81.7a7.5,7.5,0,0,0-7.5,7.5v81.7a7.5,7.5,0,0,0,7.5,7.5h81.7a7.5,7.5,0,0,0,7.5-7.5Zm-15,74.2h-66.7v-66.7h66.7Z"/><path class="cls-1" d="M359.29,160.21a7.5,7.5,0,0,0-7.5-7.5h-81.7a7.5,7.5,0,0,0-7.5,7.5v81.7a7.5,7.5,0,0,0,7.5,7.5h81.7a7.5,7.5,0,0,0,7.5-7.5Zm-15,74.2h-66.7v-66.7h66.7Z"/><path class="cls-1" d="M468.63,240.84a211,211,0,0,0-24-84.12,7.5,7.5,0,0,0-6.64-4H380a7.5,7.5,0,0,0-7.5,7.5v81.7a7.5,7.5,0,0,0,7.5,7.5h81.25a7.5,7.5,0,0,0,7.5-7.5A8,8,0,0,0,468.63,240.84Zm-81.17-6.43v-66.7h46A195.78,195.78,0,0,1,453,234.41Z"/><path class="cls-1" d="M139.54,270.09a7.5,7.5,0,0,0-7.5-7.5H50.82a7.5,7.5,0,0,0-7.48,8,210.93,210.93,0,0,0,24,84.69,7.49,7.49,0,0,0,6.63,4H132a7.5,7.5,0,0,0,7.5-7.5Zm-15,74.2h-46A195.69,195.69,0,0,1,59,277.59h65.54v66.7Z"/><path class="cls-1" d="M249.41,270.09a7.5,7.5,0,0,0-7.5-7.5h-81.7a7.5,7.5,0,0,0-7.5,7.5v81.7a7.5,7.5,0,0,0,7.5,7.5h81.7a7.5,7.5,0,0,0,7.5-7.5Zm-15,74.2h-66.7v-66.7h66.7Z"/><path class="cls-1" d="M359.29,270.09a7.5,7.5,0,0,0-7.5-7.5h-81.7a7.5,7.5,0,0,0-7.5,7.5v81.7a7.5,7.5,0,0,0,7.5,7.5h81.7a7.5,7.5,0,0,0,7.5-7.5Zm-15,74.2h-66.7v-66.7h66.7Z"/><path class="cls-1" d="M444.68,355.28a211,211,0,0,0,24-84.69,7.5,7.5,0,0,0-7.48-8H380a7.5,7.5,0,0,0-7.5,7.5v81.7a7.5,7.5,0,0,0,7.5,7.5H438A7.5,7.5,0,0,0,444.68,355.28Zm-57.22-11v-66.7H453a195.78,195.78,0,0,1-19.55,66.7Z"/><path class="cls-1" d="M132,372.46H91.89a7.5,7.5,0,0,0-6,12,214,214,0,0,0,41.61,41.61,7.5,7.5,0,0,0,12-6V380A7.5,7.5,0,0,0,132,372.46Zm-7.5,31.82a198.59,198.59,0,0,1-16.82-16.82h16.82Z"/><path class="cls-1" d="M241.91,372.46h-81.7a7.5,7.5,0,0,0-7.5,7.5V438a7.5,7.5,0,0,0,4,6.64,211,211,0,0,0,84.69,24l.51,0a7.51,7.51,0,0,0,7.5-7.5V380A7.5,7.5,0,0,0,241.91,372.46ZM234.41,453a195.81,195.81,0,0,1-66.7-19.55v-46h66.7Z"/><path class="cls-1" d="M351.79,372.46h-81.7a7.5,7.5,0,0,0-7.5,7.5v81.23a7.51,7.51,0,0,0,7.5,7.5l.51,0a211,211,0,0,0,84.69-24,7.5,7.5,0,0,0,4-6.64V380A7.5,7.5,0,0,0,351.79,372.46Zm-7.5,61A195.81,195.81,0,0,1,277.59,453V387.46h66.7Z"/><path class="cls-1" d="M420.11,372.46H380a7.5,7.5,0,0,0-7.5,7.5v40.15a7.5,7.5,0,0,0,12,6,213.78,213.78,0,0,0,41.61-41.61,7.5,7.5,0,0,0-6-12Zm-32.65,31.82V387.46h16.82A197.45,197.45,0,0,1,387.46,404.27Z"/></svg>