<svg id="Layer_1" data-name="Layer 1" xmlns="http://www.w3.org/2000/svg" viewBox="0 0 512 343.09"><defs><style>.cls-1{fill:#e2e2e2}.cls-2{fill:#0d6e9a}.cls-3{fill:#31363b}.cls-4{fill:#efa335}.cls-5{fill:#87a4f4}.cls-6{fill:#7c9ce5}.cls-7{fill:#6b97d6}.cls-8{fill:#5884ba}.cls-9{fill:#fd8f31}.cls-10{fill:#fc4e51}.cls-11{fill:#ea3942}.cls-12{fill:#09627a}</style></defs><title>feat-img2</title><path class="cls-1" d="M40.25 191.26h15v53.38h-15z" transform="translate(0 -84)"/><path class="cls-2" d="M280.66 161.91a7.6 7.6 0 0 0 8.89 6.07l51.11-9.63-3.14-14.9-50.79 9.55a7.61 7.61 0 0 0-6.07 8.91zm46.85-29.07l13.62-7.41-23.27-24-14.21 6.69z" transform="translate(0 -84)"/><path class="cls-3" d="M175.66 360.74a66.35 66.35 0 1 1-66.35-66.35 66.36 66.36 0 0 1 66.35 66.35z" transform="translate(0 -84)"/><path class="cls-1" d="M109.3 398.41a37.67 37.67 0 1 1 37.7-37.67 37.71 37.71 0 0 1-37.7 37.67z" transform="translate(0 -84)"/><path class="cls-3" d="M512 360.74a66.35 66.35 0 1 1-66.35-66.35A66.36 66.36 0 0 1 512 360.74z" transform="translate(0 -84)"/><path class="cls-1" d="M445.65 398.41a37.67 37.67 0 1 1 37.67-37.67 37.71 37.71 0 0 1-37.67 37.67z" transform="translate(0 -84)"/><path class="cls-4" d="M451.48 370.93a15.3 15.3 0 0 1-20.64-6.47l-42-80.42 27.11-14.17 42 80.42a15.3 15.3 0 0 1-6.47 20.64z" transform="translate(0 -84)"/><path class="cls-5" d="M494.27 286.4c-12.82-24.74-40.63-39.49-70.79-36L360 138.95l-26.26 9.4s41 98.07 22.8 164.91a24 24 0 0 1-23.61 19.5h-42.99c-38.95-1.32-64.79-41.09-51.36-77.67l19-51.67a.1.1 0 0 0-.09-.13h-128A129.5 129.5 0 0 0 0 332.76v21a9.64 9.64 0 0 0 9.64 9.64h341.92c17 0 32.27-4.76 38.34-20.66a42.39 42.39 0 0 1 11.28-16.52c28.54-25.48 68.16-29.22 86.82-29.51a7.09 7.09 0 0 0 6.27-10.31z" transform="translate(0 -84)"/><path class="cls-6" d="M196.54 203.38l-19 51.67c-13.43 36.58 12.41 76.36 51.36 77.67h42.95a24 24 0 0 0 7.81-1.32c-33-7.24-53.3-43.13-41.09-76.39l19-51.67a.1.1 0 0 0-.09-.13h-61a.1.1 0 0 1 .06.17z" transform="translate(0 -84)"/><path class="cls-7" d="M134.43 267.71H86a86 86 0 0 0-86 86 9.64 9.64 0 0 0 9.64 9.64H210.8v-19.26a76.38 76.38 0 0 0-76.37-76.38z" transform="translate(0 -84)"/><path class="cls-8" d="M134.43 267.71H86c-1.61 0-3.2.05-4.79.14a76.37 76.37 0 0 1 71.93 76.24v19.27h57.66v-19.27a76.38 76.38 0 0 0-76.37-76.38z" transform="translate(0 -84)"/><path class="cls-5" d="M398.14 155.2h-67a5 5 0 0 1-5-5v-16.5a9.46 9.46 0 0 1 7.15-9.17l63.43-15.94a5.77 5.77 0 0 1 7.18 5.6v35.23a5.77 5.77 0 0 1-5.76 5.78z" transform="translate(0 -84)"/><path class="cls-1" d="M396.73 108.59l-21.14 5.31v41.3h22.55a5.77 5.77 0 0 0 5.77-5.77v-35.24a5.77 5.77 0 0 0-7.18-5.6z" transform="translate(0 -84)"/><path class="cls-7" d="M373.35 359.66a29 29 0 0 0 16.56-16.95 42.94 42.94 0 0 1 11.7-16.9c28.5-25.11 67.81-28.81 86.39-29.1a7.09 7.09 0 0 0 6.23-10.32c-12.82-24.74-40.63-39.49-70.79-36 .04.03-55.29 46.8-50.09 109.27z" transform="translate(0 -84)"/><path class="cls-5" d="M272.37 86.59l32.9-.33a5.58 5.58 0 0 1 4.36 2l15.83 19.2a.81.81 0 0 1-.62 1.32l-46.12.34a10.55 10.55 0 0 1-10.55-10.55v-7.78a4.2 4.2 0 0 1 4.2-4.2z" transform="translate(0 -84)"/><path class="cls-4" d="M227.52 164.23h-49.2a5.07 5.07 0 0 0-5.07 5.07v35h92.7a.77.77 0 0 0 .75-.93c-1.22-5.99-9.34-39.14-39.18-39.14z" transform="translate(0 -84)"/><path class="cls-9" d="M227.52 164.23h-18.47v40.09h56.89a.77.77 0 0 0 .75-.93c-1.21-6.01-9.33-39.16-39.17-39.16z" transform="translate(0 -84)"/><path class="cls-10" d="M98.4 112.4V91.5a7.5 7.5 0 0 0-15 0v20.9z" transform="translate(0 -84)"/><path class="cls-10" d="M160 181.52H21.77v-5.87a69.14 69.14 0 1 1 138.27 0z" transform="translate(0 -84)"/><path class="cls-11" d="M90.9 106.5a68.85 68.85 0 0 0-28.83 6.3 69.13 69.13 0 0 1 40.3 62.83v5.88H160v-5.87a69.14 69.14 0 0 0-69.1-69.14z" transform="translate(0 -84)"/><path class="cls-2" d="M165.6 179.75H16.21a7.65 7.65 0 0 0-7.65 7.65v8.19a7.65 7.65 0 0 0 7.65 7.65H165.6a7.65 7.65 0 0 0 7.65-7.65v-8.19a7.65 7.65 0 0 0-7.65-7.65z" transform="translate(0 -84)"/><path class="cls-12" d="M165.6 179.75h-50v23.5h50a7.66 7.66 0 0 0 7.65-7.66v-8.19a7.65 7.65 0 0 0-7.65-7.65z" transform="translate(0 -84)"/></svg>