<svg id="Layer_1" data-name="Layer 1" xmlns="http://www.w3.org/2000/svg" viewBox="0 0 448.26 512"><defs><style>.cls-1{fill:#ffb125}.cls-2{fill:#f4d5ba}.cls-3{fill:#ffe7cf}.cls-4{fill:#fc4e51}.cls-5{fill:#ea3942}.cls-6{fill:#f3e8d7}.cls-7{fill:#464c50}.cls-8{fill:#31363b}</style></defs><title>feat-img3</title><path class="cls-1" d="M147.13 75.61V194l-4.47 47.7A46.55 46.55 0 0 0 189 292.61h134.25a46.55 46.55 0 0 0 46.35-50.89L365.13 194V75.61z" transform="translate(-32)"/><path class="cls-2" d="M170.59 181.5v-27.41h-16.72a14.4 14.4 0 0 0-14.39 14.39v11.13A14.4 14.4 0 0 0 153.87 194h16.72zm187.8-27.41h-16.72V194h16.72a14.4 14.4 0 0 0 14.39-14.39v-11.13a14.4 14.4 0 0 0-14.39-14.39z" transform="translate(-32)"/><path class="cls-3" d="M289.91 368.29l51.58-48.45L321 316c-9.89-2-17-13.45-17-23.53v-44.89h-95.76v44.93c0 10.08-7.11 21.55-17 23.53l-20.48 3.8 51.58 48.45a49.35 49.35 0 0 0 67.57 0z" transform="translate(-32)"/><path class="cls-2" d="M253.18 311.5c0 10.08 3.84 18.66 11.15 21.22l49.93 14.63 29.29-27.51-20.49-3.84c-9.88-2-17-13.45-17-23.53v-44.89h-52.88z" transform="translate(-32)"/><path class="cls-4" d="M317.17 312.64a102 102 0 0 1-122.08 0 9.76 9.76 0 0 0-8.46-1.59l-90.17 25.13a65 65 0 0 0-46.59 51.63l-17.61 103.1A18.05 18.05 0 0 0 50.05 512h412.16A18 18 0 0 0 480 490.91l-17.61-103.1a65 65 0 0 0-46.59-51.63l-90.16-25.13a9.75 9.75 0 0 0-8.47 1.59z" transform="translate(-32)"/><path class="cls-5" d="M480 490.91l-17.61-103.1a65 65 0 0 0-46.59-51.63l-90.16-25.13a9.75 9.75 0 0 0-8.46 1.59 101.76 101.76 0 0 1-54.89 20.09l106.08 31.07A46.91 46.91 0 0 1 402 401.09L421 512h41.25A18 18 0 0 0 480 490.91z" transform="translate(-32)"/><path class="cls-3" d="M317.59 72.39C303.17 60 282.9 49.14 256.13 48.84c-26.77.3-47 11.13-61.45 23.55-18.39 15.84-28.35 39.35-28.35 63.62v58.9c0 24.27 30.5 88.64 89.81 88.64s89.8-64.37 89.8-88.64V136c0-24.27-9.94-47.78-28.35-63.61z" transform="translate(-32)"/><path class="cls-2" d="M317.59 72.39a97.61 97.61 0 0 0-30.86-18.16V194.9c0 19.84-20.38 66.45-60.2 82.82a77.24 77.24 0 0 0 29.61 5.82c59.31 0 89.81-64.37 89.81-88.64V136c-.01-24.27-9.95-47.78-28.36-63.61z" transform="translate(-32)"/><path class="cls-1" d="M231.57 100.68c3.28 8 26.84 56.89 114.36 62.55a177.6 177.6 0 0 0 19.2.24v-62.79z" transform="translate(-32)"/><path class="cls-4" d="M329.1 15.32L270 1.77a69.83 69.83 0 0 0-31.8.13l-55.43 13.2a46.4 46.4 0 0 0-35.66 45.14v47.2h218V60.55a46.4 46.4 0 0 0-36.01-45.23z" transform="translate(-32)"/><path class="cls-5" d="M329.1 15.32L270 1.77a69.83 69.83 0 0 0-31.8.13l-13.4 3.19 44.6 10.23a46.41 46.41 0 0 1 36 45.23v46.89h59.69V60.55a46.4 46.4 0 0 0-35.99-45.23z" transform="translate(-32)"/><path class="cls-5" d="M339.19 133.76a278.53 278.53 0 0 0-166.12 0 17.66 17.66 0 0 1-22.18-12.33l-3.76-14c71.87-26.93 146.13-26.94 218 0l-3.76 14a17.65 17.65 0 0 1-22.18 12.33z" transform="translate(-32)"/><path class="cls-6" d="M150.16 321.21l-32.29 9v117.1h32.29z" transform="translate(-32)"/><path class="cls-5" d="M480 490.91l-17.61-103.1a65 65 0 0 0-46.59-51.63l-90.16-25.13a9.75 9.75 0 0 0-8.46 1.59 101.76 101.76 0 0 1-54.89 20.09l106.08 31.07A46.91 46.91 0 0 1 402 401.09L421 512h41.25A18 18 0 0 0 480 490.91z" transform="translate(-32)"/><path class="cls-7" d="M202.54 317c-12.52 5.42-1.87 27.66-1.87 27.66s-10.66 22.23 1.87 27.66 46.36-13.27 46.36-13.27V330.3s-33.84-18.69-46.36-13.3zm107.18 0c12.52 5.42 1.87 27.66 1.87 27.66s10.65 22.23-1.87 27.66-46.36-13.27-46.36-13.27V330.3s33.84-18.69 46.36-13.3z" transform="translate(-32)"/><path class="cls-8" d="M263.24 365.37H249a7.1 7.1 0 0 1-7.1-7.1V331.1a7.1 7.1 0 0 1 7.1-7.1h14.21a7.1 7.1 0 0 1 7.1 7.1v27.17a7.1 7.1 0 0 1-7.07 7.1z" transform="translate(-32)"/><path class="cls-6" d="M394.37 330.21l-32.29-9v126.1h32.29z" transform="translate(-32)"/><path class="cls-2" d="M362.08 362l6.29 1.84a46.87 46.87 0 0 1 26 18.52v-52.15l-32.29-9z" transform="translate(-32)"/><path class="cls-6" d="M405 512v-54.14l-5.49-11.49-33.38-27a14.78 14.78 0 0 0-9.28-3.28H155.39a14.78 14.78 0 0 0-9.28 3.28l-33.37 27-5.49 11.49V512z" transform="translate(-32)"/></svg>