<svg id="Capa_1" data-name="Capa 1" xmlns="http://www.w3.org/2000/svg" viewBox="0 0 58.27 57.98"><defs><style>.cls-1{fill:#ecf0f1}.cls-2{fill:#556080}.cls-3{fill:#eddcc7}.cls-4{fill:#d75a4a}.cls-5{fill:#f29c21}.cls-6{fill:#d6c4b1}.cls-7{fill:#a34740}.cls-8{fill:#e18c25}.cls-9{fill:#5e5e5e}</style></defs><title>user</title><path class="cls-1" d="M18.61 41.7l-7.9 4.3a7.11 7.11 0 0 0-1.27.9 26.49 26.49 0 0 0 34 .09 7 7 0 0 0-1.39-.93l-8.45-4.23a3.23 3.23 0 0 1-1.78-2.89v-3.32a12.79 12.79 0 0 0 .8-1 19.48 19.48 0 0 0 2.63-5.3 2.66 2.66 0 0 0 1.89-2.53v-3.58a2.65 2.65 0 0 0-.89-2v-5.09s1.05-8-9.75-8-9.75 8-9.75 8v5.13a2.64 2.64 0 0 0-.89 2v3.55a2.66 2.66 0 0 0 1.23 2.2 17.6 17.6 0 0 0 3.21 6.63v3.24a3.24 3.24 0 0 1-1.69 2.83z" transform="translate(0 -.14)"/><path class="cls-2" d="M27 .15A26.48 26.48 0 0 0 9.45 46.9a7 7 0 0 1 1.25-.9l7.91-4.31a3.23 3.23 0 0 0 1.68-2.83v-3.24a17.58 17.58 0 0 1-3.2-6.62 2.66 2.66 0 0 1-1.23-2.23v-3.56a2.65 2.65 0 0 1 .89-2v-5.09s-1.05-8 9.75-8 9.75 8 9.75 8v5.13a2.64 2.64 0 0 1 .89 2v3.55a2.66 2.66 0 0 1-1.89 2.53 19.48 19.48 0 0 1-2.63 5.3 12.79 12.79 0 0 1-.8 1v3.32a3.23 3.23 0 0 0 1.79 2.89l8.47 4.23a7.05 7.05 0 0 1 1.39.93A26.49 26.49 0 0 0 27 .15z" transform="translate(0 -.14)"/><path class="cls-3" d="M36.84 48.49l-.01.01-1.99 7.29 4.65-4.65-2.65-2.65z"/><path class="cls-4" d="M56.09 34.68l-1.25-1.25a2 2 0 0 0-2.81 0L48.45 37l2.65 2.65z" transform="translate(0 -.14)"/><path class="cls-5" transform="rotate(-45 43.798 44.078)" d="M35.76 42.28h16.42v3.75H35.76z"/><path class="cls-6" d="M42.48 54.15h.01l-3-3.01-4.65 4.65-.13.48 7.77-2.12z"/><path class="cls-7" d="M54.11 42.68l3.58-3.58a2 2 0 0 0 0-2.81l-1.6-1.6-5 5z" transform="translate(0 -.14)"/><path class="cls-8" transform="rotate(-45 46.629 46.906)" d="M38.58 44.85H55v4.25H38.58z"/><path class="cls-9" d="M34 58.13a1 1 0 0 1-.71-1.71l2.21-2.21a1 1 0 0 1 1.41 1.41l-2.21 2.21a1 1 0 0 1-.7.3z" transform="translate(0 -.14)"/></svg>