<svg id="Layer_1" data-name="Layer 1" xmlns="http://www.w3.org/2000/svg" viewBox="0 0 512 512"><defs><style>.cls-1{fill:#fff200}</style></defs><title>waffle</title><path class="cls-1" d="M15 256C15 123.11 123.11 15 256 15a240.59 240.59 0 0 1 160.54 61.25 7.5 7.5 0 0 0 10-11.18A256 256 0 0 0 63.71 425 7.5 7.5 0 1 0 75 415.09 240.73 240.73 0 0 1 15 256zM446.93 85.46a7.5 7.5 0 0 0-11.19 10A240.59 240.59 0 0 1 497 256c0 132.89-108.11 241-241 241a240.55 240.55 0 0 1-160.87-61.55 7.5 7.5 0 0 0-10 11.17 256 256 0 0 0 361.8-361.16z"/><path class="cls-1" d="M139.54 91.89a7.5 7.5 0 0 0-12-6 213.91 213.91 0 0 0-41.61 41.61 7.5 7.5 0 0 0 6 12H132a7.5 7.5 0 0 0 7.5-7.5zm-15 32.65h-16.81a198 198 0 0 1 16.82-16.82zm124.87-73.72a7.5 7.5 0 0 0-8-7.48 210.44 210.44 0 0 0-84.7 24 7.5 7.5 0 0 0-4 6.63V132a7.5 7.5 0 0 0 7.5 7.5h81.7a7.5 7.5 0 0 0 7.5-7.5zm-15 73.72h-66.7v-46A195.17 195.17 0 0 1 234.41 59zM359.29 74a7.5 7.5 0 0 0-4-6.64 211 211 0 0 0-84.69-24 7.5 7.5 0 0 0-8 7.48V132a7.5 7.5 0 0 0 7.5 7.5h81.7a7.5 7.5 0 0 0 7.5-7.5zm-15 50.58h-66.7V59a195.78 195.78 0 0 1 66.7 19.55zM380 139.54h40.17a7.5 7.5 0 0 0 5.67-12.41 213.9 213.9 0 0 0-41.32-41.23 7.5 7.5 0 0 0-12 6V132a7.5 7.5 0 0 0 7.48 7.54zm7.5-31.82a198 198 0 0 1 16.82 16.82h-16.86zm-247.96 52.49a7.5 7.5 0 0 0-7.5-7.5H74a7.49 7.49 0 0 0-6.63 4 211 211 0 0 0-24 84.69 7.5 7.5 0 0 0 7.48 8H132a7.5 7.5 0 0 0 7.5-7.5zm-15 74.2H59a195.69 195.69 0 0 1 19.54-66.7h46zm124.87-74.2a7.5 7.5 0 0 0-7.5-7.5h-81.7a7.5 7.5 0 0 0-7.5 7.5v81.7a7.5 7.5 0 0 0 7.5 7.5h81.7a7.5 7.5 0 0 0 7.5-7.5zm-15 74.2h-66.7v-66.7h66.7zm124.88-74.2a7.5 7.5 0 0 0-7.5-7.5h-81.7a7.5 7.5 0 0 0-7.5 7.5v81.7a7.5 7.5 0 0 0 7.5 7.5h81.7a7.5 7.5 0 0 0 7.5-7.5zm-15 74.2h-66.7v-66.7h66.7zm124.34 6.43a211 211 0 0 0-24-84.12 7.5 7.5 0 0 0-6.64-4H380a7.5 7.5 0 0 0-7.5 7.5v81.7a7.5 7.5 0 0 0 7.5 7.5h81.25a7.5 7.5 0 0 0 7.5-7.5 8 8 0 0 0-.12-1.08zm-81.17-6.43v-66.7h46a195.78 195.78 0 0 1 19.54 66.7zm-247.92 35.68a7.5 7.5 0 0 0-7.5-7.5H50.82a7.5 7.5 0 0 0-7.48 8 210.93 210.93 0 0 0 24 84.69 7.49 7.49 0 0 0 6.63 4H132a7.5 7.5 0 0 0 7.5-7.5zm-15 74.2h-46A195.69 195.69 0 0 1 59 277.59h65.54v66.7zm124.87-74.2a7.5 7.5 0 0 0-7.5-7.5h-81.7a7.5 7.5 0 0 0-7.5 7.5v81.7a7.5 7.5 0 0 0 7.5 7.5h81.7a7.5 7.5 0 0 0 7.5-7.5zm-15 74.2h-66.7v-66.7h66.7zm124.88-74.2a7.5 7.5 0 0 0-7.5-7.5h-81.7a7.5 7.5 0 0 0-7.5 7.5v81.7a7.5 7.5 0 0 0 7.5 7.5h81.7a7.5 7.5 0 0 0 7.5-7.5zm-15 74.2h-66.7v-66.7h66.7zm100.39 10.99a211 211 0 0 0 24-84.69 7.5 7.5 0 0 0-7.48-8H380a7.5 7.5 0 0 0-7.5 7.5v81.7a7.5 7.5 0 0 0 7.5 7.5h58a7.5 7.5 0 0 0 6.68-4.01zm-57.22-11v-66.7H453a195.78 195.78 0 0 1-19.55 66.7zM132 372.46H91.89a7.5 7.5 0 0 0-6 12 214 214 0 0 0 41.61 41.61 7.5 7.5 0 0 0 12-6V380a7.5 7.5 0 0 0-7.5-7.54zm-7.5 31.82a198.59 198.59 0 0 1-16.82-16.82h16.82zm117.41-31.82h-81.7a7.5 7.5 0 0 0-7.5 7.5V438a7.5 7.5 0 0 0 4 6.64 211 211 0 0 0 84.69 24h.51a7.51 7.51 0 0 0 7.5-7.5V380a7.5 7.5 0 0 0-7.5-7.54zm-7.5 80.54a195.81 195.81 0 0 1-66.7-19.55v-46h66.7zm117.38-80.54h-81.7a7.5 7.5 0 0 0-7.5 7.5v81.23a7.51 7.51 0 0 0 7.5 7.5h.51a211 211 0 0 0 84.69-24 7.5 7.5 0 0 0 4-6.64V380a7.5 7.5 0 0 0-7.5-7.54zm-7.5 61a195.81 195.81 0 0 1-66.7 19.54v-65.54h66.7zm75.82-61H380a7.5 7.5 0 0 0-7.5 7.5v40.15a7.5 7.5 0 0 0 12 6 213.78 213.78 0 0 0 41.61-41.61 7.5 7.5 0 0 0-6-12zm-32.65 31.82v-16.82h16.82a197.45 197.45 0 0 1-16.82 16.81z"/></svg>