<svg id="Layer_1" data-name="Layer 1" xmlns="http://www.w3.org/2000/svg" viewBox="0 0 512 384"><defs><style>.cls-1{fill:#fff200;}</style></defs><title>discount-voucher</title><path class="cls-1" d="M501.33,202.67A10.66,10.66,0,0,0,512,192V106.67A42.71,42.71,0,0,0,469.33,64H42.67A42.71,42.71,0,0,0,0,106.67V192a10.66,10.66,0,0,0,10.67,10.67,53.33,53.33,0,0,1,0,106.67A10.66,10.66,0,0,0,0,320v85.33A42.71,42.71,0,0,0,42.67,448H469.33A42.71,42.71,0,0,0,512,405.33V320a10.66,10.66,0,0,0-10.67-10.67,53.33,53.33,0,1,1,0-106.67ZM426.67,256a74.78,74.78,0,0,0,64,73.91v75.43a21.36,21.36,0,0,1-21.33,21.33H42.67a21.36,21.36,0,0,1-21.33-21.33V329.91a74.67,74.67,0,0,0,0-147.81V106.67A21.36,21.36,0,0,1,42.67,85.33H469.33a21.36,21.36,0,0,1,21.33,21.33v75.43A74.78,74.78,0,0,0,426.67,256Z" transform="translate(0 -64)"/><path class="cls-1" d="M138.67,104A10.66,10.66,0,0,0,128,114.67v24a10.67,10.67,0,1,0,21.33,0v-24A10.66,10.66,0,0,0,138.67,104Z" transform="translate(0 -64)"/><path class="cls-1" d="M138.67,192A10.66,10.66,0,0,0,128,202.67V224a10.67,10.67,0,1,0,21.33,0V202.67A10.66,10.66,0,0,0,138.67,192Z" transform="translate(0 -64)"/><path class="cls-1" d="M138.67,277.33A10.66,10.66,0,0,0,128,288v21.33a10.67,10.67,0,1,0,21.33,0V288A10.66,10.66,0,0,0,138.67,277.33Z" transform="translate(0 -64)"/><path class="cls-1" d="M138.67,362.67A10.66,10.66,0,0,0,128,373.33v21.33a10.67,10.67,0,1,0,21.33,0V373.33A10.66,10.66,0,0,0,138.67,362.67Z" transform="translate(0 -64)"/><path class="cls-1" d="M357.92,151.13a10.65,10.65,0,0,0-14.79,3l-128,192a10.67,10.67,0,1,0,17.75,11.83l128-192A10.66,10.66,0,0,0,357.92,151.13Z" transform="translate(0 -64)"/><path class="cls-1" d="M277.33,202.67c0-29.41-19.14-53.33-42.67-53.33S192,173.26,192,202.67,211.13,256,234.67,256,277.33,232.07,277.33,202.67Zm-64,0c0-17.34,9.77-32,21.33-32s21.33,14.66,21.33,32-9.77,32-21.33,32S213.33,220,213.33,202.67Z" transform="translate(0 -64)"/><path class="cls-1" d="M341.33,256c-23.53,0-42.67,23.93-42.67,53.33s19.14,53.33,42.67,53.33S384,338.74,384,309.33,364.86,256,341.33,256Zm0,85.33c-11.56,0-21.33-14.66-21.33-32s9.77-32,21.33-32,21.33,14.66,21.33,32S352.9,341.33,341.33,341.33Z" transform="translate(0 -64)"/></svg>