<svg id="Capa_1" data-name="Capa 1" xmlns="http://www.w3.org/2000/svg" viewBox="0 0 477.87 512"><defs><style>.cls-1{fill:#fff;}</style></defs><title>factory</title><path class="cls-1" d="M490.73,223a8.53,8.53,0,0,0-8.47-.1l-23.48,13L452.27,8.29A8.53,8.53,0,0,0,443.73,0H384a8.53,8.53,0,0,0-8.53,8.29l-8,278.43-26.18,14.51V230.4a8.53,8.53,0,0,0-12.67-7.46L187.73,301.23V230.4a8.53,8.53,0,0,0-12.67-7.46L21.46,308.28a8.53,8.53,0,0,0-4.39,7.46V503.47A8.53,8.53,0,0,0,25.6,512H486.4a8.53,8.53,0,0,0,8.53-8.53V230.4A8.53,8.53,0,0,0,490.73,223Zm-98.43-206h43.14l.49,17.07H391.81Zm-1,34.13h45.11L442,245.32,384.85,277ZM247.47,494.93h-51.2V452.27h51.2Zm68.27,0h-51.2V452.27h51.2Zm162.13,0H332.8v-51.2a8.53,8.53,0,0,0-8.53-8.53H187.73a8.53,8.53,0,0,0-8.53,8.53v51.2H34.13V320.76l136.53-75.85v70.83a8.53,8.53,0,0,0,12.67,7.46l140.93-78.28v70.83a8.53,8.53,0,0,0,12.67,7.46l80.48-44.71,37.41-20.78,23-12.8Z" transform="translate(-17.07 0)"/><path class="cls-1" d="M136.53,341.33H68.27a8.53,8.53,0,0,0-8.53,8.53V384a8.53,8.53,0,0,0,8.53,8.53h68.27a8.53,8.53,0,0,0,8.53-8.53V349.87A8.53,8.53,0,0,0,136.53,341.33ZM128,375.47H76.8V358.4H128Z" transform="translate(-17.07 0)"/><path class="cls-1" d="M290.13,341.33H221.87a8.53,8.53,0,0,0-8.53,8.53V384a8.53,8.53,0,0,0,8.53,8.53h68.27a8.53,8.53,0,0,0,8.53-8.53V349.87A8.53,8.53,0,0,0,290.13,341.33Zm-8.53,34.13H230.4V358.4h51.2Z" transform="translate(-17.07 0)"/><path class="cls-1" d="M443.73,341.33H375.47a8.53,8.53,0,0,0-8.53,8.53V384a8.53,8.53,0,0,0,8.53,8.53h68.27a8.53,8.53,0,0,0,8.53-8.53V349.87A8.53,8.53,0,0,0,443.73,341.33Zm-8.53,34.13H384V358.4h51.2Z" transform="translate(-17.07 0)"/></svg>