<svg id="Capa_1" data-name="Capa 1" xmlns="http://www.w3.org/2000/svg" viewBox="0 0 512 511.99"><defs><style>.cls-1{fill:#d3d3d3;}</style></defs><title>fom-icon4</title><path class="cls-1" d="M123.86,71.64h-18.2c2.74-20.26,13.94-21.28,19.1-21.75a10,10,0,0,0,9.09-10V10A10,10,0,0,0,123.29,0C91.68,1.8,54,17.76,54,83.7v52a15.77,15.77,0,0,0,15.75,15.75h54.1a15.77,15.77,0,0,0,15.75-15.76V87.39A15.77,15.77,0,0,0,123.86,71.64Zm-4.25,59.85H74V83.7c0-46,20.46-58.86,39.85-62.49V31.72C100.46,35.8,85,47.84,85,81.64a10,10,0,0,0,10,10h24.56Z" transform="translate(0 0)"/><path class="cls-1" d="M226.09,71.64h-18.2c2.74-20.26,13.94-21.28,19.1-21.75a10,10,0,0,0,9.09-10V10A10,10,0,0,0,225.52,0C193.91,1.8,156.23,17.76,156.23,83.7v52A15.77,15.77,0,0,0,172,151.49h54.1a15.77,15.77,0,0,0,15.75-15.76V87.39A15.77,15.77,0,0,0,226.09,71.64Zm-4.25,59.85H176.23V83.7c0-46,20.46-58.86,39.85-62.49V31.72c-13.39,4.08-28.8,16.11-28.8,49.92a10,10,0,0,0,10,10h24.56v39.85Z" transform="translate(0 0)"/><path class="cls-1" d="M285.07,80.79A10,10,0,1,0,288,87.86,10.08,10.08,0,0,0,285.07,80.79Z" transform="translate(0 0)"/><path class="cls-1" d="M334.27,77.86h-12.6a10,10,0,0,0,0,20h12.6c87,0,157.73,70.76,157.73,157.73,0,74.23-52.65,139.15-125.19,154.37a10,10,0,0,0-7.95,9.79v58.1l-61.59-61.59a10,10,0,0,0-7.07-2.93H177.73C90.76,413.33,20,342.57,20,255.6A157.8,157.8,0,0,1,39.79,179a10,10,0,1,0-17.48-9.72A177.84,177.84,0,0,0,0,255.6c0,98,79.73,177.73,177.73,177.73H286.06l75.74,75.74A10,10,0,0,0,378.87,502V427.67A177.8,177.8,0,0,0,512,255.6C512,157.6,432.27,77.86,334.27,77.86Z" transform="translate(0 0)"/><path class="cls-1" d="M379.06,177.49H132.94a10,10,0,1,0,0,20H379.06a10,10,0,1,0,0-20Z" transform="translate(0 0)"/><path class="cls-1" d="M379.06,230.82H132.94a10,10,0,1,0,0,20H379.06a10,10,0,1,0,0-20Z" transform="translate(0 0)"/><path class="cls-1" d="M379.06,284.16H132.94a10,10,0,1,0,0,20H379.06a10,10,0,1,0,0-20Z" transform="translate(0 0)"/><path class="cls-1" d="M379.06,337.49H247.87a10,10,0,1,0,0,20H379.06a10,10,0,0,0,0-20Z" transform="translate(0 0)"/><path class="cls-1" d="M191.61,337.49h-.16a10,10,0,0,0,0,20h.16a10,10,0,0,0,0-20Z" transform="translate(0 0)"/></svg>