<svg id="Capa_1" data-name="Capa 1" xmlns="http://www.w3.org/2000/svg" viewBox="0 0 469.32 512"><defs><style>.cls-1{fill:#d3d3d3;}</style></defs><title>fom-icon2</title><path class="cls-1" d="M302.94,264.49a8.53,8.53,0,0,0-8.53,8.53V392.53h-256V68.27h256V187.72a8.53,8.53,0,0,0,17.07,0V37.59A37.64,37.64,0,0,0,273.88,0H58.93A37.64,37.64,0,0,0,21.34,37.59V474.4A37.64,37.64,0,0,0,58.93,512H273.88a37.64,37.64,0,0,0,37.59-37.59V273A8.52,8.52,0,0,0,302.94,264.49ZM58.93,17.07H273.88A20.55,20.55,0,0,1,294.4,37.59V51.2H38.4V37.59A20.56,20.56,0,0,1,58.93,17.07ZM273.88,494.93H58.93a20.55,20.55,0,0,1-20.52-20.52V409.6h256v64.81A20.55,20.55,0,0,1,273.88,494.93Z" transform="translate(-21.34)"/><path class="cls-1" d="M166.41,418.13a34.13,34.13,0,1,0,34.13,34.13A34.17,34.17,0,0,0,166.41,418.13Zm0,51.2a17.07,17.07,0,1,1,17.07-17.07A17.08,17.08,0,0,1,166.41,469.33Z" transform="translate(-21.34)"/><path class="cls-1" d="M132.28,42.67h34.13a8.53,8.53,0,1,0,0-17.07H132.28a8.53,8.53,0,1,0,0,17.07Z" transform="translate(-21.34)"/><path class="cls-1" d="M192,42.67h8.53a8.53,8.53,0,1,0,0-17.07H192a8.53,8.53,0,1,0,0,17.07Z" transform="translate(-21.34)"/><path class="cls-1" d="M490,233.66a8.54,8.54,0,0,0,0-6.52,8.71,8.71,0,0,0-1.85-2.79L385.77,122A8.53,8.53,0,0,0,373.71,134l87.83,87.83H157.88a8.53,8.53,0,0,0,0,17.07H461.54l-87.83,87.83a8.53,8.53,0,1,0,12.07,12.07L488.17,236.44A8.58,8.58,0,0,0,490,233.66Z" transform="translate(-21.34)"/></svg>