<svg id="Capa_1" data-name="Capa 1" xmlns="http://www.w3.org/2000/svg" viewBox="0 0 512 503.51"><defs><style>.cls-1{fill:#d3d3d3;}</style></defs><title>fom-icon3</title><path class="cls-1" d="M168,350.47c21.09,29.73,42.14,56.32,56.09,73.45,2,2.49,3.93,4.8,5.78,7h-42.1a8.53,8.53,0,1,0,0,17.07H324.27a8.53,8.53,0,0,0,0-17.07h-42.1c1.84-2.23,3.75-4.54,5.79-7,13.94-17.07,35-43.72,56.08-73.45a749.75,749.75,0,0,0,56.37-90.85c17.42-34.22,26.27-62.63,26.27-84.44a170.55,170.55,0,0,0-50-120.84A8.53,8.53,0,1,0,364.62,66.4a153.55,153.55,0,0,1,45,108.78c0,19.1-8.21,44.9-24.4,76.69a732.81,732.81,0,0,1-55.09,88.75c-20.8,29.35-41.6,55.64-55.38,72.53-4.58,5.61-8.7,10.58-12.22,14.78a8.64,8.64,0,0,1-13,0c-3.52-4.2-7.64-9.17-12.22-14.78C223.5,396.26,202.71,370,181.9,340.62a732.81,732.81,0,0,1-55.09-88.75c-16.21-31.79-24.4-57.59-24.4-76.69A153.64,153.64,0,0,1,315.82,33.43a8.54,8.54,0,0,0,6.66-15.72A170.73,170.73,0,0,0,85.34,175.18c0,21.81,8.84,50.22,26.27,84.48A749.24,749.24,0,0,0,168,350.47Z" transform="translate(0 -4.25)"/><path class="cls-1" d="M256,98.15a8.53,8.53,0,0,0,0-17.07,85.33,85.33,0,1,0,60.34,25,8.53,8.53,0,1,0-12.07,12.07,68.27,68.27,0,1,1-48.27-20Z" transform="translate(0 -4.25)"/><path class="cls-1" d="M508.79,470l-52.48-93.87a26.52,26.52,0,0,0-23.22-13.41H372.27a8.53,8.53,0,1,0,0,17.07h60.82a9.46,9.46,0,0,1,8.34,4.66l52.46,93.87a7.68,7.68,0,0,1-.08,7.89,9.39,9.39,0,0,1-8.26,4.52H26.46a9.39,9.39,0,0,1-8.25-4.52,7.68,7.68,0,0,1-.08-7.89l52.46-93.87a9.45,9.45,0,0,1,8.33-4.66h60.82a8.53,8.53,0,1,0,0-17.07H78.92a26.54,26.54,0,0,0-23.24,13.41L3.21,470a24.75,24.75,0,0,0,.26,24.84,26.28,26.28,0,0,0,23,13H485.55a26.28,26.28,0,0,0,23-13A24.75,24.75,0,0,0,508.79,470Z" transform="translate(0 -4.25)"/><path class="cls-1" d="M418.14,405.35H384a8.58,8.58,0,0,0-4.74,1.43l-25.6,17.07a8.53,8.53,0,0,0,9.47,14.2l23.42-15.63h31.57a8.53,8.53,0,0,0,0-17.07Z" transform="translate(0 -4.25)"/><path class="cls-1" d="M366.94,465.08a8.53,8.53,0,0,0,8.53,8.53h68.27a8.53,8.53,0,0,0,0-17.07H375.47A8.53,8.53,0,0,0,366.94,465.08Z" transform="translate(0 -4.25)"/><path class="cls-1" d="M153.6,439.48a8.53,8.53,0,0,0,4.74-15.63l-25.6-17.07a8.59,8.59,0,0,0-4.74-1.43H93.87a8.53,8.53,0,1,0,0,17.07h31.57L148.89,438A8.52,8.52,0,0,0,153.6,439.48Z" transform="translate(0 -4.25)"/><path class="cls-1" d="M68.27,456.55a8.53,8.53,0,1,0,0,17.07h68.27a8.53,8.53,0,1,0,0-17.07Z" transform="translate(0 -4.25)"/></svg>