<svg id="Capa_1" data-name="Capa 1" xmlns="http://www.w3.org/2000/svg" viewBox="0 0 512 512"><defs><style>.cls-1{fill:#d3d3d3;}</style></defs><title>fom-icon1</title><path class="cls-1" d="M512,256C512,114.84,397.16,0,256,0S0,114.84,0,256A254.49,254.49,0,0,0,43,397.81l0,.18,1.77,2.59c1.54,2.24,3.19,4.37,4.8,6.55.65.89,1.29,1.78,2,2.67,2,2.7,4.12,5.34,6.25,7.94.61.75,1.24,1.49,1.86,2.24A256.09,256.09,0,0,0,92,452.35l2.12,1.77c2.54,2.07,5.11,4.1,7.73,6.08,1.06.8,2.13,1.58,3.2,2.36,2.49,1.83,5,3.64,7.54,5.37,1.37.93,2.78,1.8,4.16,2.71,3.55,2.3,7.13,4.53,10.79,6.65,2.54,1.48,5.09,3,7.7,4.36,1.57.84,3.17,1.63,4.76,2.44,2.77,1.42,5.56,2.79,8.38,4.1q2.14,1,4.28,1.94,4.9,2.18,9.92,4.14c1,.41,2.06.83,3.1,1.23a253.53,253.53,0,0,0,28.18,8.84c.39.1.79.18,1.19.27q6.37,1.56,12.88,2.8c1.15.22,2.3.42,3.46.62q5.43,1,10.92,1.69l4.19.54c3.58.41,7.18.73,10.79,1,1.35.1,2.69.23,4,.31,4.87.26,9.77.44,14.71.44s9.84-.18,14.71-.45c1.35-.08,2.69-.21,4-.31,3.62-.26,7.22-.58,10.79-1,1.4-.16,2.8-.35,4.19-.54q5.5-.73,10.92-1.69c1.15-.2,2.3-.4,3.46-.62q6.5-1.24,12.88-2.8l1.19-.27a253.54,253.54,0,0,0,28.18-8.84c1-.39,2.07-.82,3.11-1.23q5-2,9.91-4.13c1.43-.63,2.87-1.28,4.28-1.94q4.24-2,8.38-4.1c1.59-.81,3.19-1.6,4.76-2.44,2.6-1.4,5.15-2.88,7.7-4.36q5.48-3.19,10.79-6.65c1.39-.9,2.8-1.77,4.16-2.71,2.55-1.73,5-3.54,7.54-5.37,1.07-.79,2.14-1.56,3.2-2.36q3.92-3,7.73-6.08l2.12-1.77A256.22,256.22,0,0,0,452.42,420c.62-.74,1.24-1.48,1.84-2.23,2.12-2.6,4.22-5.25,6.25-7.94.67-.88,1.3-1.77,2-2.67,1.6-2.18,3.26-4.31,4.8-6.55L469,398l0-.18A254.44,254.44,0,0,0,512,256Zm-17.07,0a237.42,237.42,0,0,1-30.64,116.86,116.43,116.43,0,0,0-111.77-82.72H301.79a3.12,3.12,0,0,1-3.12-3.11v-5.5a3.4,3.4,0,0,1,2.36-3c54.95-20.66,89.22-106.36,82-166.3A127.45,127.45,0,0,0,341.38,32.9C431.08,67.35,494.93,154.33,494.93,256ZM448.32,397.57c-.69.93-1.38,1.85-2.08,2.77-1.9,2.5-3.82,5-5.82,7.41l-.62.73a241.6,241.6,0,0,1-22.28,23.41c-.47.44-.94.88-1.42,1.31-2.36,2.14-4.79,4.22-7.24,6.27-.77.64-1.54,1.27-2.32,1.9-2.38,1.94-4.78,3.84-7.23,5.68-.83.62-1.68,1.21-2.52,1.83-1.41,1-2.83,2-4.26,3V409.6H375.48v53.19l-1,.58c-2.18,1.25-4.34,2.48-6.55,3.65-1.51.8-3,1.58-4.58,2.36q-3.87,1.95-7.79,3.75c-1.28.59-2.55,1.18-3.84,1.74q-4.93,2.15-9.95,4.09c-.69.26-1.37.55-2.06.81a238.15,238.15,0,0,1-26.14,8.11c-.64.16-1.29.29-1.93.44-3.68.88-7.39,1.68-11.12,2.38-1.11.21-2.22.4-3.34.6q-5,.87-10,1.52c-1.29.17-2.58.35-3.87.49-3.31.38-6.64.67-10,.91-1.24.09-2.47.21-3.71.28-4.53.27-9.06.43-13.62.43s-9.09-.15-13.61-.41c-1.25-.07-2.47-.2-3.71-.28-3.34-.25-6.67-.53-10-.91-1.3-.15-2.59-.32-3.87-.49q-5-.67-10-1.52c-1.11-.2-2.23-.38-3.34-.6q-5.59-1.06-11.12-2.39l-1.92-.44a240.15,240.15,0,0,1-26.15-8.11c-.69-.26-1.37-.55-2.06-.81q-5-1.93-9.94-4.09c-1.29-.56-2.57-1.15-3.85-1.74q-3.93-1.8-7.79-3.75c-1.54-.78-3.07-1.54-4.58-2.36-2.21-1.17-4.39-2.41-6.55-3.65l-1-.58V409.6H119.47v42.31c-1.43-1-2.86-2-4.26-3-.84-.61-1.69-1.2-2.52-1.83-2.45-1.84-4.85-3.75-7.22-5.67-.79-.63-1.56-1.27-2.34-1.91q-3.67-3.06-7.23-6.26l-1.43-1.32a240.39,240.39,0,0,1-22.27-23.4l-.62-.73c-2-2.42-3.92-4.91-5.82-7.41-.7-.92-1.4-1.84-2.08-2.77-1-1.39-2-2.81-3-4.22a99.39,99.39,0,0,1,98.81-86.14h24.71L256,379l71.8-71.8h24.71a99.4,99.4,0,0,1,98.82,86.14C450.34,394.76,449.36,396.18,448.32,397.57ZM217.52,262.75c-40.81-15.1-72.46-84.83-72.46-134.75,0-1.09.13-2.16.15-3.24l6.25-7.71c14.09-16.76,38.14-21.56,59.84-11.95a68.27,68.27,0,0,0,87.6-29.88c27.15,8.92,51.39,25.73,67.78,46.92,2.5,52.05-28.11,124-71.66,140.39a20.27,20.27,0,0,0-13.42,19V287a20.22,20.22,0,0,0,20.18,20.18h1.89L256,354.87,208.33,307.2h1.89A20.22,20.22,0,0,0,230.4,287V281.6A20.06,20.06,0,0,0,217.52,262.75ZM256.34,17.08h.28a113.17,113.17,0,0,1,12.2.71c42.32,4.72,77.88,34.18,91.75,73.29a164.74,164.74,0,0,0-64-34.36l-7.34-2-2.84,7a51.22,51.22,0,0,1-68.2,27.75c-23.6-10.44-49.37-7.62-68.41,6.23A111.07,111.07,0,0,1,256.34,17.08ZM170.51,32.94c-1.65,1.48-3.35,2.88-4.93,4.46A127.14,127.14,0,0,0,128,128c0,56.57,35.75,133.06,83.6,150.75a3,3,0,0,1,1.73,2.85V287a3.12,3.12,0,0,1-3.11,3.11H159.49A116.43,116.43,0,0,0,47.71,372.86,237.42,237.42,0,0,1,17.07,256C17.07,154.37,80.87,67.41,170.51,32.94Z"/></svg>