<svg id="Layer_1" data-name="Layer 1" xmlns="http://www.w3.org/2000/svg" viewBox="0 0 330 512"><defs><style>.cls-1{fill:#fff;}</style></defs><title>placeholder</title><path class="cls-1" d="M189.89,264.5,256,229.74l66.11,34.75-12.62-73.61L363,138.75,289.05,128,256,61l-33.05,67L149,138.75l53.48,52.14Zm53-109.07L256,128.82l13.13,26.61,29.37,4.27-21.25,20.71,5,29.25L256,195.85l-26.27,13.81,5-29.25L213.5,159.7Z" transform="translate(-91)"/><path class="cls-1" d="M388.52,367.43c-14-10.17-31.87-18.51-52.47-24.55l48.14-73A165.32,165.32,0,0,0,421,166C421,74.47,347,0,256,0S91,74.47,91,166a164.47,164.47,0,0,0,25.9,88.79c1,1.59,2.07,3.18,3.13,4.72L175.52,343c-20.48,6-38.26,14.38-52.16,24.52C102.19,383,91,401.8,91,422c0,26,18.55,49.61,52.23,66.45C173.6,503.64,213.65,512,256,512s82.4-8.36,112.77-23.55C402.45,471.61,421,448,421,422,421,401.76,409.77,382.89,388.52,367.43ZM144.87,242.68l-2.77-4.16A134.56,134.56,0,0,1,121,166c0-75,60.56-136,135-136S391,91,391,166a135.22,135.22,0,0,1-30.52,85.49l-.49.6L256,409.83,145.17,243.12h0ZM256,482c-79.56,0-135-31.62-135-60,0-21,29.16-42,72-52.66l63,94.83,62.6-94.91C361.7,379.89,391,400.93,391,422,391,450.38,335.56,482,256,482Z" transform="translate(-91)"/></svg>